<svg id="Layer_1" data-name="Layer 1" xmlns="http://www.w3.org/2000/svg" viewBox="0 0 1280 461.55"><defs><style>.cls-1{fill:#034239;}.cls-2{fill:#d48850;}.cls-3{fill:#fff;}</style></defs><rect class="cls-1" width="1280" height="461.55"/><path class="cls-2" d="M634.79,236.54V251.8h-76.3V175.5h15.26a61,61,0,0,1,43.17,17.88q1.35,1.35,2.61,2.79a60.81,60.81,0,0,1,15.26,40.37Z"/><path class="cls-2" d="M726.36,236.54V251.8h-76.3V175.5h15.26a61,61,0,0,1,61,61Z"/><path class="cls-2" d="M688.21,122.08A38,38,0,0,1,680.57,145a37.1,37.1,0,0,1-3.54,4.08,38,38,0,0,1-27,11.17V83.93a38,38,0,0,1,27,11.18,37,37,0,0,1,3.54,4.07A38,38,0,0,1,688.21,122.08Z"/><path class="cls-2" d="M596.64,122.08a38.15,38.15,0,0,1-38.15,38.16V83.93a38.17,38.17,0,0,1,38.15,38.15Z"/><path class="cls-3" d="M244.84,377.61l-16.17-23.35H210.82v23.35h-19.4V293.77h36.29a46.6,46.6,0,0,1,19.34,3.71A28.76,28.76,0,0,1,259.69,308a29.07,29.07,0,0,1,4.43,16.17,27.31,27.31,0,0,1-17.24,26.47l18.8,26.95Zm-4.91-64.26q-4.56-3.77-13.3-3.77H210.82v29.23h15.81q8.75,0,13.3-3.84t4.55-10.78Q244.48,317.13,239.93,313.35Z"/><path class="cls-3" d="M335.51,350.66H286.76a15.18,15.18,0,0,0,6.23,9.47,20.64,20.64,0,0,0,12.21,3.47,24.73,24.73,0,0,0,8.93-1.5,21.55,21.55,0,0,0,7.24-4.73l9.94,10.78q-9.1,10.43-26.59,10.42a42.13,42.13,0,0,1-19.28-4.25,31.17,31.17,0,0,1-12.93-11.8A32.46,32.46,0,0,1,268,345.39a32.93,32.93,0,0,1,4.5-17.07,31.37,31.37,0,0,1,12.33-11.85,38.14,38.14,0,0,1,34.68-.18,29.66,29.66,0,0,1,12,11.68,34.74,34.74,0,0,1,4.38,17.66C335.87,345.87,335.75,347.55,335.51,350.66Zm-43.72-20.72a15.34,15.34,0,0,0-5.27,9.82h31.74A15.49,15.49,0,0,0,313,330a15.79,15.79,0,0,0-10.54-3.65A16.11,16.11,0,0,0,291.79,329.94Z"/><path class="cls-3" d="M350.72,376.59a40.68,40.68,0,0,1-12.22-5l6.23-13.41a39.12,39.12,0,0,0,10.42,4.49,43.56,43.56,0,0,0,12,1.74q11.85,0,11.85-5.87c0-1.84-1.08-3.15-3.23-3.95a47.89,47.89,0,0,0-9.94-2,96.05,96.05,0,0,1-13.06-2.76,20.17,20.17,0,0,1-8.92-5.51q-3.78-3.94-3.77-11.25a17.65,17.65,0,0,1,3.53-10.84,22.76,22.76,0,0,1,10.3-7.37,44.12,44.12,0,0,1,16-2.64,63.39,63.39,0,0,1,13.6,1.5,38.26,38.26,0,0,1,11.19,4.13l-6.22,13.3a37.24,37.24,0,0,0-18.57-4.79c-4,0-7,.56-9,1.68s-3,2.55-3,4.31q0,3,3.24,4.19a57,57,0,0,0,10.3,2.28,110,110,0,0,1,12.93,2.81,19.5,19.5,0,0,1,8.75,5.45q3.7,3.94,3.71,11a17.06,17.06,0,0,1-3.59,10.66A22.94,22.94,0,0,1,382.76,376a46.68,46.68,0,0,1-16.35,2.58A62.48,62.48,0,0,1,350.72,376.59Z"/><path class="cls-3" d="M417.13,374.32a31.7,31.7,0,0,1-12.64-11.8,34.52,34.52,0,0,1,0-34.26,31.61,31.61,0,0,1,12.64-11.79,41.16,41.16,0,0,1,36.47,0,31.71,31.71,0,0,1,12.58,11.79,34.52,34.52,0,0,1,0,34.26,31.8,31.8,0,0,1-12.58,11.8,41.24,41.24,0,0,1-36.47,0Zm30.06-15.93q4.6-4.86,4.61-13t-4.61-13a15.52,15.52,0,0,0-11.79-4.85,15.72,15.72,0,0,0-11.86,4.85q-4.68,4.85-4.67,13t4.67,13a15.75,15.75,0,0,0,11.86,4.85A15.55,15.55,0,0,0,447.19,358.39Z"/><path class="cls-3" d="M544.51,313.17v64.44H526.78V370a24.7,24.7,0,0,1-8.86,6.4,27.87,27.87,0,0,1-11.14,2.22q-12.69,0-20.12-7.31t-7.43-21.68V313.17h18.69v33.66q0,15.57,13.05,15.57A14,14,0,0,0,521.75,358q4.07-4.36,4.07-13V313.17Z"/><path class="cls-3" d="M582.78,314.61a33.47,33.47,0,0,1,13.11-2.4v17.25c-2.08-.16-3.47-.24-4.19-.24q-8,0-12.58,4.5t-4.55,13.47v30.42H555.89V313.17h17.84v8.51A20.77,20.77,0,0,1,582.78,314.61Z"/><path class="cls-3" d="M617.39,374.32A31.64,31.64,0,0,1,600,345.39a32.19,32.19,0,0,1,4.62-17.13,31.75,31.75,0,0,1,12.81-11.79,39.57,39.57,0,0,1,18.51-4.26,35.79,35.79,0,0,1,17.78,4.26,25.16,25.16,0,0,1,11.08,12.15l-14.49,7.79q-5-8.87-14.49-8.86a16.38,16.38,0,0,0-12.1,4.79q-4.78,4.79-4.79,13.05t4.79,13.06a16.41,16.41,0,0,0,12.1,4.79q9.57,0,14.49-8.86l14.49,7.9a25.73,25.73,0,0,1-11.08,12,35.5,35.5,0,0,1-17.78,4.31A39.69,39.69,0,0,1,617.39,374.32Z"/><path class="cls-3" d="M735.79,350.66H687a15.18,15.18,0,0,0,6.23,9.47,20.65,20.65,0,0,0,12.22,3.47,24.71,24.71,0,0,0,8.92-1.5,21.55,21.55,0,0,0,7.24-4.73l10,10.78q-9.11,10.43-26.59,10.42a42.14,42.14,0,0,1-19.29-4.25,31.17,31.17,0,0,1-12.93-11.8,32.46,32.46,0,0,1-4.56-17.13,32.93,32.93,0,0,1,4.5-17.07,31.37,31.37,0,0,1,12.33-11.85,38.14,38.14,0,0,1,34.68-.18,29.74,29.74,0,0,1,12,11.68,34.83,34.83,0,0,1,4.37,17.66C736.15,345.87,736,347.55,735.79,350.66Zm-43.72-20.72a15.34,15.34,0,0,0-5.27,9.82h31.74a15.44,15.44,0,0,0-5.27-9.76,15.77,15.77,0,0,0-10.54-3.65A16.11,16.11,0,0,0,692.07,329.94Z"/><path class="cls-3" d="M819.27,377.61l-.12-50.3-24.68,41.44h-8.74l-24.55-40.36v49.22H743V293.77h16l31.38,52.1,30.9-52.1h15.93l.24,83.84Z"/><path class="cls-3" d="M898.08,319.34q8,7.13,8,21.5v36.77H888.61v-8q-5.26,9-19.64,9a30.56,30.56,0,0,1-12.87-2.51,19.25,19.25,0,0,1-8.33-6.95,18.15,18.15,0,0,1-2.87-10.06q0-9,6.76-14.14t20.91-5.15h14.85q0-6.11-3.72-9.4t-11.13-3.29a32.81,32.81,0,0,0-10.13,1.61,26.82,26.82,0,0,0-8.44,4.38L847.29,320a40.75,40.75,0,0,1,12.64-5.75,56.49,56.49,0,0,1,15.15-2Q890.05,312.21,898.08,319.34Zm-15.93,44.44a12.15,12.15,0,0,0,5.27-6.53v-6.59H874.6q-11.49,0-11.5,7.55a6.73,6.73,0,0,0,2.82,5.69c1.87,1.4,4.45,2.09,7.72,2.09A16.26,16.26,0,0,0,882.15,363.78Z"/><path class="cls-3" d="M957.6,374.5a19.13,19.13,0,0,1-6.76,3.05,34.26,34.26,0,0,1-8.45,1q-11.49,0-17.79-5.87t-6.28-17.25V329h-9.94V314.61h9.94V298.92H937v15.69h16V329H937v26.23a8.77,8.77,0,0,0,2.1,6.29,7.75,7.75,0,0,0,5.93,2.22,12,12,0,0,0,7.54-2.4Z"/><path class="cls-3" d="M974.07,374.32a31.64,31.64,0,0,1-17.43-28.93,32.19,32.19,0,0,1,4.62-17.13,31.75,31.75,0,0,1,12.81-11.79,39.57,39.57,0,0,1,18.51-4.26,35.79,35.79,0,0,1,17.78,4.26,25.16,25.16,0,0,1,11.08,12.15L1007,336.41q-5-8.87-14.49-8.86a16.38,16.38,0,0,0-12.1,4.79q-4.79,4.79-4.79,13.05t4.79,13.06a16.41,16.41,0,0,0,12.1,4.79q9.59,0,14.49-8.86l14.49,7.9a25.73,25.73,0,0,1-11.08,12,35.5,35.5,0,0,1-17.78,4.31A39.69,39.69,0,0,1,974.07,374.32Z"/><path class="cls-3" d="M1066.71,312.21a32.39,32.39,0,0,0-11.49,2,25,25,0,0,0-9,5.69v-26.2h-18.68v83.93h18.68V345.75q0-8.62,4.2-13t11.26-4.37q6.35,0,9.7,3.77t3.35,11.44v34h18.68V340.72q0-14.13-7.36-21.32T1066.71,312.21Z"/></svg>