<svg id="Layer_1" data-name="Layer 1" xmlns="http://www.w3.org/2000/svg" viewBox="0 0 1280 1280"><defs><style>.cls-1{fill:#010101;}.cls-2{fill:#fff;}</style></defs><rect class="cls-1" width="1280" height="1280" rx="266.67"/><path class="cls-2" d="M606.33,943.15v67.37H269.48V673.7h67.37a268.77,268.77,0,0,1,190.56,78.92c4,4,7.84,8.06,11.55,12.31a268.54,268.54,0,0,1,67.37,178.22Z"/><path class="cls-2" d="M1010.52,943.15v67.37H673.7V673.7h67.37a269.31,269.31,0,0,1,269.45,269.45Z"/><path class="cls-2" d="M842.11,437.89A167.79,167.79,0,0,1,808.41,539a172.56,172.56,0,0,1-15.62,18A167.93,167.93,0,0,1,673.7,606.33V269.48A167.89,167.89,0,0,1,792.79,318.8a171.54,171.54,0,0,1,15.62,18A167.63,167.63,0,0,1,842.11,437.89Z"/><path class="cls-2" d="M437.89,437.89A168.39,168.39,0,0,1,269.48,606.33V269.48A168.39,168.39,0,0,1,437.89,437.89Z"/></svg>