<svg id="Layer_1" data-name="Layer 1" xmlns="http://www.w3.org/2000/svg" viewBox="0 0 1280 193.25"><defs><style>.cls-1{fill:#d48850;}.cls-2{fill:#fff;}</style></defs><path class="cls-1" d="M87.84,175.68v17.57H0V105.41H17.57A70.12,70.12,0,0,1,67.26,126c1,1,2,2.11,3,3.22a69.93,69.93,0,0,1,17.56,46.47Z"/><path class="cls-1" d="M193.25,175.68v17.57H105.41V105.41H123a70.24,70.24,0,0,1,70.27,70.27Z"/><path class="cls-1" d="M149.33,43.92a43.76,43.76,0,0,1-8.79,26.37A44.42,44.42,0,0,1,136.47,75a43.78,43.78,0,0,1-31.06,12.86V0a43.78,43.78,0,0,1,31.06,12.86,46.53,46.53,0,0,1,4.07,4.69A43.72,43.72,0,0,1,149.33,43.92Z"/><path class="cls-1" d="M43.92,43.92A43.84,43.84,0,0,1,31.06,75,43.78,43.78,0,0,1,0,87.84V0A43.78,43.78,0,0,1,31.06,12.86,43.82,43.82,0,0,1,43.92,43.92Z"/><path class="cls-2" d="M303.11,144.94l-18.62-26.89H264v26.89H241.61V48.42h41.78q12.83,0,22.27,4.28a33,33,0,0,1,14.55,12.13,33.42,33.42,0,0,1,5.1,18.61,31.42,31.42,0,0,1-19.86,30.47l21.65,31Zm-5.65-74q-5.25-4.33-15.31-4.34H264v33.65h18.2q10.07,0,15.31-4.42t5.24-12.41Q302.7,75.31,297.46,71Z"/><path class="cls-2" d="M407.49,113.91H351.37a17.48,17.48,0,0,0,7.17,10.9q5.65,4,14.06,4a28.42,28.42,0,0,0,10.27-1.73,24.83,24.83,0,0,0,8.34-5.44L402.66,134q-10.49,12-30.61,12a48.44,48.44,0,0,1-22.2-4.89A35.89,35.89,0,0,1,335,127.56a37.34,37.34,0,0,1-5.24-19.71,37.9,37.9,0,0,1,5.17-19.65,36.2,36.2,0,0,1,14.2-13.65A43.95,43.95,0,0,1,389,74.34a34.3,34.3,0,0,1,13.86,13.45,40.09,40.09,0,0,1,5,20.33Q407.9,108.54,407.49,113.91ZM357.16,90.06a17.64,17.64,0,0,0-6.07,11.31h36.54a17.82,17.82,0,0,0-6.07-11.24,18.15,18.15,0,0,0-12.13-4.21A18.51,18.51,0,0,0,357.16,90.06Z"/><path class="cls-2" d="M425,143.77A47.26,47.26,0,0,1,410.93,138l7.17-15.44a44.86,44.86,0,0,0,12,5.17,50.38,50.38,0,0,0,13.79,2q13.65,0,13.65-6.76c0-2.11-1.25-3.62-3.73-4.55a55.46,55.46,0,0,0-11.44-2.34,111.13,111.13,0,0,1-15-3.17,23.36,23.36,0,0,1-10.27-6.34q-4.35-4.56-4.35-13a20.31,20.31,0,0,1,4.07-12.48,26.19,26.19,0,0,1,11.86-8.48,50.68,50.68,0,0,1,18.41-3,72.23,72.23,0,0,1,15.65,1.73,43.85,43.85,0,0,1,12.89,4.75l-7.17,15.31a42.78,42.78,0,0,0-21.37-5.52q-6.9,0-10.34,1.93t-3.45,5q0,3.45,3.72,4.82a66,66,0,0,0,11.86,2.63,128.62,128.62,0,0,1,14.89,3.23,22.44,22.44,0,0,1,10.07,6.28q4.26,4.55,4.27,12.68a19.6,19.6,0,0,1-4.14,12.28q-4.12,5.37-12.06,8.34a53.92,53.92,0,0,1-18.82,3A72.32,72.32,0,0,1,425,143.77Z"/><path class="cls-2" d="M501.45,141.15a36.48,36.48,0,0,1-14.55-13.59,37.43,37.43,0,0,1-5.24-19.71,37.44,37.44,0,0,1,5.24-19.72,36.45,36.45,0,0,1,14.55-13.58,44.53,44.53,0,0,1,21-4.9,44.06,44.06,0,0,1,20.95,4.9,36.46,36.46,0,0,1,14.48,13.58,37.35,37.35,0,0,1,5.24,19.72,37.34,37.34,0,0,1-5.24,19.71,36.49,36.49,0,0,1-14.48,13.59A44.06,44.06,0,0,1,522.48,146,44.53,44.53,0,0,1,501.45,141.15Zm34.61-18.34q5.31-5.59,5.31-15t-5.31-15a17.9,17.9,0,0,0-13.58-5.59,18.1,18.1,0,0,0-13.65,5.59q-5.38,5.58-5.38,15t5.38,15a18.13,18.13,0,0,0,13.65,5.58A17.93,17.93,0,0,0,536.06,122.81Z"/><path class="cls-2" d="M648.09,70.76v74.18H627.68v-8.83a28.51,28.51,0,0,1-10.2,7.38A32.15,32.15,0,0,1,604.65,146q-14.61,0-23.16-8.41t-8.55-25V70.76h21.51V109.5q0,17.93,15,17.93,7.72,0,12.41-5t4.69-15V70.76Z"/><path class="cls-2" d="M692.14,72.41a38.63,38.63,0,0,1,15.1-2.76V89.51c-2.39-.18-4-.28-4.82-.28q-9.24,0-14.48,5.17t-5.24,15.51v35H661.19V70.76h20.54v9.79A23.92,23.92,0,0,1,692.14,72.41Z"/><path class="cls-2" d="M732,141.15a36.63,36.63,0,0,1-14.75-13.59,37,37,0,0,1-5.31-19.71,37,37,0,0,1,5.31-19.72A36.61,36.61,0,0,1,732,74.55a45.68,45.68,0,0,1,21.31-4.9,41.31,41.31,0,0,1,20.47,4.9,29,29,0,0,1,12.75,14l-16.68,9Q764.05,87.3,753.16,87.3a18.88,18.88,0,0,0-13.93,5.52q-5.52,5.52-5.51,15t5.51,15a18.91,18.91,0,0,0,13.93,5.51q11,0,16.68-10.2l16.68,9.1a29.58,29.58,0,0,1-12.75,13.79,40.8,40.8,0,0,1-20.47,5A45.67,45.67,0,0,1,732,141.15Z"/><path class="cls-2" d="M868.29,113.91H812.17a17.48,17.48,0,0,0,7.17,10.9q5.65,4,14.07,4a28.45,28.45,0,0,0,10.27-1.73,25,25,0,0,0,8.34-5.44L863.46,134Q853,146,832.85,146a48.5,48.5,0,0,1-22.2-4.89,36,36,0,0,1-14.89-13.59,37.43,37.43,0,0,1-5.24-19.71,38,38,0,0,1,5.17-19.65A36.16,36.16,0,0,1,809.9,74.55a43.93,43.93,0,0,1,39.91-.21,34.24,34.24,0,0,1,13.86,13.45,40.09,40.09,0,0,1,5,20.33Q868.7,108.54,868.29,113.91ZM818,90.06a17.59,17.59,0,0,0-6.06,11.31h36.53a17.77,17.77,0,0,0-6.06-11.24,18.17,18.17,0,0,0-12.14-4.21A18.51,18.51,0,0,0,818,90.06Z"/><path class="cls-2" d="M964.39,144.94,964.25,87l-28.4,47.71H925.78L897.52,88.27v56.67h-21V48.42H895l36.12,60,35.58-60h18.33l.28,96.52Z"/><path class="cls-2" d="M1055.12,77.86q9.23,8.2,9.24,24.75v42.33h-20.14V135.7Q1038.16,146,1021.61,146a35.08,35.08,0,0,1-14.82-2.89,22,22,0,0,1-9.58-8,20.77,20.77,0,0,1-3.31-11.58q0-10.35,7.79-16.27t24.06-5.93h17.1q0-7-4.28-10.83t-12.82-3.79a37.4,37.4,0,0,0-11.65,1.86,30.58,30.58,0,0,0-9.72,5l-7.73-15A46.63,46.63,0,0,1,1011.2,72a65.27,65.27,0,0,1,17.44-2.35Q1045.88,69.65,1055.12,77.86ZM1036.78,129a14,14,0,0,0,6.07-7.51v-7.59h-14.76q-13.23,0-13.24,8.69a7.72,7.72,0,0,0,3.25,6.55c2.15,1.61,5.12,2.41,8.89,2.41A18.76,18.76,0,0,0,1036.78,129Z"/><path class="cls-2" d="M1123.64,141.35a21.92,21.92,0,0,1-7.79,3.52,39.46,39.46,0,0,1-9.72,1.17q-13.23,0-20.48-6.75t-7.23-19.86V89H1067V72.41h11.45V54.35h21.51V72.41h18.47V89h-18.47v30.19q0,4.69,2.41,7.24a8.9,8.9,0,0,0,6.82,2.55,13.82,13.82,0,0,0,8.69-2.75Z"/><path class="cls-2" d="M1142.6,141.15a36.63,36.63,0,0,1-14.75-13.59,37,37,0,0,1-5.31-19.71,37,37,0,0,1,5.31-19.72,36.61,36.61,0,0,1,14.75-13.58,45.68,45.68,0,0,1,21.31-4.9,41.31,41.31,0,0,1,20.47,4.9,29,29,0,0,1,12.75,14l-16.68,9q-5.79-10.22-16.68-10.21a18.88,18.88,0,0,0-13.93,5.52q-5.52,5.52-5.51,15t5.51,15a18.91,18.91,0,0,0,13.93,5.51q11,0,16.68-10.2l16.68,9.1a29.58,29.58,0,0,1-12.75,13.79,40.8,40.8,0,0,1-20.47,5A45.67,45.67,0,0,1,1142.6,141.15Z"/><path class="cls-2" d="M1249.25,69.65A37.28,37.28,0,0,0,1236,71.93a28.51,28.51,0,0,0-10.35,6.55V48.31h-21.51v96.63h21.51V108.26q0-9.93,4.83-15t13-5q7.3,0,11.17,4.34t3.86,13.17v39.16H1280V102.47q0-16.27-8.48-24.54T1249.25,69.65Z"/></svg>