<svg id="Layer_1" data-name="Layer 1" xmlns="http://www.w3.org/2000/svg" viewBox="0 0 1280 120.47"><defs><style>.cls-1{fill:#010101;}</style></defs><path class="cls-1" d="M75.81,119.11,52.86,86H27.54v33.15H0V.13H51.5Q67.31.13,79,5.4a40.75,40.75,0,0,1,17.93,15q6.28,9.69,6.29,22.94T96.79,66.16A40.33,40.33,0,0,1,78.7,80.87l26.68,38.24Zm-7-91.19Q62.38,22.57,50,22.57H27.54V64H50q12.41,0,18.87-5.44T75.3,43.3Q75.3,33.28,68.84,27.92Z"/><path class="cls-1" d="M204.47,80.87H135.29a21.53,21.53,0,0,0,8.84,13.43q7,4.92,17.34,4.92a35,35,0,0,0,12.66-2.12,30.85,30.85,0,0,0,10.28-6.71l14.11,15.29q-12.93,14.79-37.73,14.79-15.48,0-27.37-6a44.16,44.16,0,0,1-18.35-16.74,46.07,46.07,0,0,1-6.47-24.3A46.74,46.74,0,0,1,115,49.17a44.57,44.57,0,0,1,17.51-16.83,54.2,54.2,0,0,1,49.2-.25,42.1,42.1,0,0,1,17.08,16.57Q205,59.46,205,73.73,205,74.24,204.47,80.87Zm-62-29.41A21.73,21.73,0,0,0,135,65.4h45a21.94,21.94,0,0,0-7.48-13.85,22.32,22.32,0,0,0-14.95-5.19A22.83,22.83,0,0,0,142.43,51.46Z"/><path class="cls-1" d="M226.05,117.66q-10.87-2.8-17.33-7l8.83-19A55.42,55.42,0,0,0,232.34,98a62.12,62.12,0,0,0,17,2.46q16.83,0,16.82-8.33,0-3.9-4.58-5.6t-14.11-2.89a136,136,0,0,1-18.53-3.91,28.81,28.81,0,0,1-12.66-7.82q-5.35-5.61-5.35-16a25,25,0,0,1,5-15.38q5-6.7,14.62-10.45t22.69-3.74a89.48,89.48,0,0,1,19.29,2.12,54.37,54.37,0,0,1,15.89,5.86l-8.84,18.87a52.78,52.78,0,0,0-26.34-6.8q-8.5,0-12.75,2.38t-4.25,6.12q0,4.26,4.59,6A81.48,81.48,0,0,0,255.46,64a158.94,158.94,0,0,1,18.35,4,27.6,27.6,0,0,1,12.41,7.74q5.26,5.61,5.27,15.64a24.14,24.14,0,0,1-5.1,15.12q-5.1,6.63-14.87,10.28t-23.2,3.66A88.85,88.85,0,0,1,226.05,117.66Z"/><path class="cls-1" d="M320.3,114.43a44.77,44.77,0,0,1-17.93-16.74,46.07,46.07,0,0,1-6.47-24.3,46.11,46.11,0,0,1,6.47-24.31A44.77,44.77,0,0,1,320.3,32.34a58.53,58.53,0,0,1,51.75,0A45,45,0,0,1,389.9,49.08a46.19,46.19,0,0,1,6.46,24.31,46.16,46.16,0,0,1-6.46,24.3,45,45,0,0,1-17.85,16.74,58.44,58.44,0,0,1-51.75,0ZM363,91.83q6.54-6.89,6.54-18.44T363,55a22.09,22.09,0,0,0-16.74-6.89A22.37,22.37,0,0,0,329.39,55q-6.63,6.88-6.63,18.44t6.63,18.44a22.36,22.36,0,0,0,16.83,6.88A22.08,22.08,0,0,0,363,91.83Z"/><path class="cls-1" d="M501.05,27.67v91.44H475.9V108.23a35,35,0,0,1-12.58,9.09,39.5,39.5,0,0,1-15.81,3.15q-18,0-28.55-10.37T408.42,79.34V27.67h26.52V75.43q0,22.09,18.52,22.09,9.53,0,15.3-6.2t5.78-18.44V27.67Z"/><path class="cls-1" d="M555.36,29.71A47.53,47.53,0,0,1,574,26.31V50.78c-3-.22-4.93-.34-6-.34q-11.38,0-17.85,6.38t-6.45,19.12v43.17H517.2V27.67h25.33V39.73A29.41,29.41,0,0,1,555.36,29.71Z"/><path class="cls-1" d="M604.48,114.43a45.16,45.16,0,0,1-18.19-16.74,45.66,45.66,0,0,1-6.54-24.3,45.7,45.7,0,0,1,6.54-24.31,45.16,45.16,0,0,1,18.19-16.74,56.23,56.23,0,0,1,26.26-6q14.44,0,25.24,6A35.8,35.8,0,0,1,671.7,49.59l-20.57,11Q644,48.07,630.57,48.06a23.29,23.29,0,0,0-17.17,6.8q-6.79,6.8-6.79,18.53t6.79,18.53q6.79,6.8,17.17,6.79,13.59,0,20.56-12.57L671.7,97.35a36.52,36.52,0,0,1-15.72,17q-10.8,6.12-25.24,6.12A56.11,56.11,0,0,1,604.48,114.43Z"/><path class="cls-1" d="M772.49,80.87H703.32a21.56,21.56,0,0,0,8.83,13.43q7,4.92,17.34,4.92a35,35,0,0,0,12.66-2.12,30.85,30.85,0,0,0,10.28-6.71l14.11,15.29q-12.91,14.79-37.73,14.79-15.46,0-27.36-6a44.13,44.13,0,0,1-18.36-16.74,46.06,46.06,0,0,1-6.46-24.3A46.83,46.83,0,0,1,683,49.17a44.64,44.64,0,0,1,17.51-16.83,54.22,54.22,0,0,1,49.21-.25A42.16,42.16,0,0,1,766.8,48.66Q773,59.46,773,73.73,773,74.24,772.49,80.87Zm-62-29.41A21.72,21.72,0,0,0,703,65.4h45a21.88,21.88,0,0,0-7.47-13.85,22.35,22.35,0,0,0-15-5.19A22.83,22.83,0,0,0,710.45,51.46Z"/><path class="cls-1" d="M891,119.11l-.17-71.39-35,58.81H843.36L808.52,49.25v69.86H782.69V.13h22.77L850,74.07,893.84.13h22.61l.34,119Z"/><path class="cls-1" d="M1002.79,36.42q11.38,10.11,11.39,30.51v52.18H989.36V107.72q-7.47,12.75-27.87,12.75a43.21,43.21,0,0,1-18.27-3.57A27.2,27.2,0,0,1,931.4,107a25.72,25.72,0,0,1-4.07-14.28q0-12.74,9.6-20.05t29.66-7.31h21.07q0-8.67-5.27-13.34t-15.8-4.68a46.09,46.09,0,0,0-14.36,2.3,38.13,38.13,0,0,0-12,6.2l-9.52-18.52a57.2,57.2,0,0,1,17.94-8.16,80.15,80.15,0,0,1,21.5-2.89Q991.4,26.31,1002.79,36.42Zm-22.6,63.06a17.22,17.22,0,0,0,7.47-9.27V80.87H969.48q-16.32,0-16.32,10.7a9.53,9.53,0,0,0,4,8.08q4,3,11,3A23.09,23.09,0,0,0,980.19,99.48Z"/><path class="cls-1" d="M1087.26,114.69a27.19,27.19,0,0,1-9.6,4.33,48.74,48.74,0,0,1-12,1.45q-16.31,0-25.24-8.33t-8.92-24.47V50.1H1017.4V29.71h14.11V7.44H1058V29.71h22.77V50.1H1058V87.32c0,3.86,1,6.83,3,8.93s4.79,3.14,8.41,3.14a17,17,0,0,0,10.71-3.4Z"/><path class="cls-1" d="M1110.63,114.43a45.07,45.07,0,0,1-18.18-16.74,45.58,45.58,0,0,1-6.55-24.3,45.62,45.62,0,0,1,6.55-24.31,45.07,45.07,0,0,1,18.18-16.74,56.23,56.23,0,0,1,26.26-6q14.44,0,25.24,6a35.71,35.71,0,0,1,15.72,17.25l-20.56,11q-7.14-12.57-20.57-12.58a23.3,23.3,0,0,0-17.17,6.8q-6.79,6.8-6.79,18.53t6.79,18.53a23.29,23.29,0,0,0,17.17,6.79q13.6,0,20.57-12.57l20.56,11.21a36.42,36.42,0,0,1-15.72,17q-10.8,6.12-25.24,6.12A56.11,56.11,0,0,1,1110.63,114.43Z"/><path class="cls-1" d="M1242.1,26.31a46.15,46.15,0,0,0-16.32,2.8A35.56,35.56,0,0,0,1213,37.18V0h-26.51V119.11H1213V73.9q0-12.24,6-18.44t16-6.21q9,0,13.77,5.36t4.76,16.23v48.27H1280V66.76q0-20.06-10.45-30.25T1242.1,26.31Z"/></svg>