<svg id="Layer_1" data-name="Layer 1" xmlns="http://www.w3.org/2000/svg" viewBox="0 0 1280 418.11"><defs><style>.cls-1{fill:#fff;}</style></defs><path class="cls-1" d="M629.18,216.56v21.66H520.89V129.94h21.66a86.36,86.36,0,0,1,61.26,25.37c1.28,1.28,2.52,2.59,3.71,4a86.39,86.39,0,0,1,21.66,57.29Z"/><path class="cls-1" d="M759.11,216.56v21.66H650.83V129.94h21.66a86.6,86.6,0,0,1,86.62,86.62Z"/><path class="cls-1" d="M705,54.14a54,54,0,0,1-10.83,32.51,56.35,56.35,0,0,1-5,5.78,54,54,0,0,1-38.29,15.85V0A54.12,54.12,0,0,1,705,54.14Z"/><path class="cls-1" d="M575,54.14a54.13,54.13,0,0,1-54.14,54.14V0A54.15,54.15,0,0,1,575,54.14Z"/><path class="cls-1" d="M75.81,416.75l-23-33.15H27.54v33.15H0v-119H51.5q15.81,0,27.45,5.27a40.75,40.75,0,0,1,17.93,15q6.28,9.67,6.29,22.94T96.79,363.8A40.38,40.38,0,0,1,78.7,378.5l26.68,38.25Zm-7-91.19Q62.38,320.21,50,320.2H27.54v41.48H50q12.41,0,18.87-5.44t6.46-15.3Q75.3,330.92,68.84,325.56Z"/><path class="cls-1" d="M204.47,378.5H135.29a21.51,21.51,0,0,0,8.84,13.43q7,4.94,17.34,4.93a35.22,35.22,0,0,0,12.66-2.12A30.72,30.72,0,0,0,184.41,388l14.11,15.3q-12.93,14.79-37.73,14.79-15.48,0-27.37-6a44.16,44.16,0,0,1-18.35-16.74A46.1,46.1,0,0,1,108.6,371,46.78,46.78,0,0,1,115,346.8,44.62,44.62,0,0,1,132.49,330a54.16,54.16,0,0,1,49.2-.26,42.23,42.23,0,0,1,17.08,16.57q6.21,10.8,6.21,25.07Q205,371.87,204.47,378.5Zm-62-29.4A21.73,21.73,0,0,0,135,363h45a22,22,0,0,0-7.48-13.86A22.37,22.37,0,0,0,157.56,344,22.83,22.83,0,0,0,142.43,349.1Z"/><path class="cls-1" d="M226.05,415.3q-10.87-2.81-17.33-7.05l8.83-19a55.75,55.75,0,0,0,14.79,6.38,62.12,62.12,0,0,0,17,2.46q16.83,0,16.82-8.33,0-3.9-4.58-5.61t-14.11-2.89a134.51,134.51,0,0,1-18.53-3.91,28.79,28.79,0,0,1-12.66-7.81q-5.35-5.61-5.35-16a25,25,0,0,1,5-15.38q5-6.72,14.62-10.46t22.69-3.74a88.87,88.87,0,0,1,19.29,2.13,54.09,54.09,0,0,1,15.89,5.86l-8.84,18.87a52.78,52.78,0,0,0-26.34-6.8q-8.5,0-12.75,2.38t-4.25,6.12c0,2.83,1.53,4.82,4.59,5.95a81.48,81.48,0,0,0,14.62,3.23,158.94,158.94,0,0,1,18.35,4,27.6,27.6,0,0,1,12.41,7.74q5.26,5.59,5.27,15.63a24.14,24.14,0,0,1-5.1,15.13q-5.1,6.63-14.87,10.28t-23.2,3.66A88.85,88.85,0,0,1,226.05,415.3Z"/><path class="cls-1" d="M320.3,412.07a44.77,44.77,0,0,1-17.93-16.74,48.89,48.89,0,0,1,0-48.61A44.77,44.77,0,0,1,320.3,330a58.44,58.44,0,0,1,51.75,0,45,45,0,0,1,17.85,16.74,49,49,0,0,1,0,48.61,45,45,0,0,1-17.85,16.74,58.44,58.44,0,0,1-51.75,0ZM363,389.47q6.54-6.89,6.54-18.44T363,352.58a22.08,22.08,0,0,0-16.74-6.88,22.36,22.36,0,0,0-16.83,6.88q-6.63,6.89-6.63,18.45t6.63,18.44a22.36,22.36,0,0,0,16.83,6.88A22.08,22.08,0,0,0,363,389.47Z"/><path class="cls-1" d="M501.05,325.3v91.45H475.9V405.87A35,35,0,0,1,463.32,415a39.5,39.5,0,0,1-15.81,3.15q-18,0-28.55-10.37T408.42,377V325.3h26.52v47.76q0,22.11,18.52,22.1,9.53,0,15.3-6.2t5.78-18.44V325.3Z"/><path class="cls-1" d="M555.36,327.34a47.71,47.71,0,0,1,18.61-3.4v24.48q-4.43-.35-6-.34-11.38,0-17.85,6.37t-6.45,19.12v43.18H517.2V325.3h25.33v12.07A29.5,29.5,0,0,1,555.36,327.34Z"/><path class="cls-1" d="M604.48,412.07a45.16,45.16,0,0,1-18.19-16.74,48.43,48.43,0,0,1,0-48.61A45.16,45.16,0,0,1,604.48,330a56.24,56.24,0,0,1,26.26-6q14.44,0,25.24,6a35.8,35.8,0,0,1,15.72,17.25l-20.57,11Q644,345.7,630.57,345.7a23.29,23.29,0,0,0-17.17,6.8q-6.79,6.79-6.79,18.53t6.79,18.52a23.29,23.29,0,0,0,17.17,6.8q13.59,0,20.56-12.58L671.7,395A36.57,36.57,0,0,1,656,412q-10.8,6.11-25.24,6.12A56.24,56.24,0,0,1,604.48,412.07Z"/><path class="cls-1" d="M772.49,378.5H703.32a21.53,21.53,0,0,0,8.83,13.43q7,4.94,17.34,4.93a35.22,35.22,0,0,0,12.66-2.12A30.72,30.72,0,0,0,752.43,388l14.11,15.3q-12.91,14.79-37.73,14.79-15.46,0-27.36-6a44.13,44.13,0,0,1-18.36-16.74,46.09,46.09,0,0,1-6.46-24.3A46.86,46.86,0,0,1,683,346.8,44.68,44.68,0,0,1,700.51,330a54.18,54.18,0,0,1,49.21-.26,42.29,42.29,0,0,1,17.08,16.57q6.19,10.8,6.2,25.07Q773,371.87,772.49,378.5Zm-62-29.4A21.72,21.72,0,0,0,703,363h45a21.91,21.91,0,0,0-7.47-13.86,22.39,22.39,0,0,0-15-5.18A22.83,22.83,0,0,0,710.45,349.1Z"/><path class="cls-1" d="M891,416.75l-.17-71.39-35,58.81H843.36l-34.84-57.28v69.86H782.69v-119h22.77L850,371.7l43.85-73.93h22.61l.34,119Z"/><path class="cls-1" d="M1002.79,334.06q11.38,10.11,11.39,30.51v52.18H989.36V405.36q-7.47,12.75-27.87,12.75a43.21,43.21,0,0,1-18.27-3.57,27.27,27.27,0,0,1-11.82-9.86,25.72,25.72,0,0,1-4.07-14.28q0-12.75,9.6-20.06t29.66-7.3h21.07q0-8.67-5.27-13.35T966.59,345a45.8,45.8,0,0,0-14.36,2.3,37.92,37.92,0,0,0-12,6.2L930.72,335a57.66,57.66,0,0,1,17.94-8.16,80.56,80.56,0,0,1,21.5-2.89Q991.4,323.94,1002.79,334.06Zm-22.6,63.06a17.26,17.26,0,0,0,7.47-9.27V378.5H969.48q-16.32,0-16.32,10.71a9.51,9.51,0,0,0,4,8.07q4,3,11,3A23.18,23.18,0,0,0,980.19,397.12Z"/><path class="cls-1" d="M1087.26,412.33a27.37,27.37,0,0,1-9.6,4.33,48.74,48.74,0,0,1-12,1.45q-16.31,0-25.24-8.33t-8.92-24.48V347.74H1017.4v-20.4h14.11V305.08H1058v22.26h22.77v20.4H1058V385q0,5.79,3,8.92c2,2.1,4.79,3.15,8.41,3.15a17,17,0,0,0,10.71-3.4Z"/><path class="cls-1" d="M1110.63,412.07a45.07,45.07,0,0,1-18.18-16.74,48.37,48.37,0,0,1,0-48.61A45.07,45.07,0,0,1,1110.63,330a56.24,56.24,0,0,1,26.26-6q14.44,0,25.24,6a35.71,35.71,0,0,1,15.72,17.25l-20.56,11q-7.14-12.58-20.57-12.58a23.3,23.3,0,0,0-17.17,6.8q-6.79,6.79-6.79,18.53t6.79,18.52a23.3,23.3,0,0,0,17.17,6.8q13.6,0,20.57-12.58L1177.85,395a36.47,36.47,0,0,1-15.72,17q-10.8,6.11-25.24,6.12A56.24,56.24,0,0,1,1110.63,412.07Z"/><path class="cls-1" d="M1242.1,323.94a46.15,46.15,0,0,0-16.32,2.81,35.43,35.43,0,0,0-12.75,8.07V297.64h-26.51V416.75H1213V371.54q0-12.24,6-18.45t16-6.2q9,0,13.77,5.35t4.76,16.24v48.27H1280V364.4q0-20.06-10.45-30.26T1242.1,323.94Z"/></svg>