<svg id="Layer_1" data-name="Layer 1" xmlns="http://www.w3.org/2000/svg" viewBox="0 0 1280 335.74"><defs><style>.cls-1{fill:#d28b52;}.cls-2{fill:#fff;}.cls-3{fill:#034239;}</style></defs><rect class="cls-1" width="1280" height="335.74"/><path class="cls-2" d="M347.23,209.84l-16.17-23.36H313.22v23.36H293.81V126h36.3a46.51,46.51,0,0,1,19.34,3.71,28.75,28.75,0,0,1,12.64,10.54,29.07,29.07,0,0,1,4.43,16.17,27.34,27.34,0,0,1-17.25,26.47l18.8,27Zm-4.91-64.26q-4.54-3.78-13.29-3.78H313.22V171H329q8.75,0,13.29-3.83t4.55-10.78Q346.87,149.36,342.32,145.58Z"/><path class="cls-2" d="M437.9,182.89H389.15a15.22,15.22,0,0,0,6.23,9.46,20.6,20.6,0,0,0,12.22,3.47,24.68,24.68,0,0,0,8.92-1.49,21.84,21.84,0,0,0,7.25-4.73l9.94,10.77q-9.1,10.42-26.59,10.42a42,42,0,0,1-19.29-4.25,31.16,31.16,0,0,1-12.93-11.8,32.42,32.42,0,0,1-4.55-17.12,33,33,0,0,1,4.49-17.07,31.49,31.49,0,0,1,12.34-11.86,38.2,38.2,0,0,1,34.67-.18,29.81,29.81,0,0,1,12,11.68,34.87,34.87,0,0,1,4.37,17.67C438.26,178.1,438.14,179.77,437.9,182.89Zm-43.72-20.72a15.31,15.31,0,0,0-5.27,9.82h31.74a15.42,15.42,0,0,0-5.27-9.76,15.73,15.73,0,0,0-10.54-3.66A16.09,16.09,0,0,0,394.18,162.17Z"/><path class="cls-2" d="M453.11,208.82a41.13,41.13,0,0,1-12.21-5l6.22-13.42a38.94,38.94,0,0,0,10.42,4.49,43.67,43.67,0,0,0,12,1.74q11.87,0,11.86-5.87,0-2.74-3.24-3.95a47.74,47.74,0,0,0-9.94-2,94.21,94.21,0,0,1-13.05-2.75,20.24,20.24,0,0,1-8.92-5.51q-3.78-4-3.78-11.26A17.63,17.63,0,0,1,446,154.44a22.72,22.72,0,0,1,10.3-7.37,44.13,44.13,0,0,1,16-2.63,62.6,62.6,0,0,1,13.59,1.5,38,38,0,0,1,11.2,4.13l-6.23,13.3a37.13,37.13,0,0,0-18.56-4.8c-4,0-7,.56-9,1.68s-3,2.56-3,4.31q0,3,3.23,4.19a57.26,57.26,0,0,0,10.3,2.28,112.83,112.83,0,0,1,12.94,2.81,19.53,19.53,0,0,1,8.74,5.45q3.71,4,3.71,11A17,17,0,0,1,495.63,201a22.9,22.9,0,0,1-10.48,7.25,46.62,46.62,0,0,1-16.35,2.57A62.47,62.47,0,0,1,453.11,208.82Z"/><path class="cls-2" d="M519.52,206.54a31.54,31.54,0,0,1-12.63-11.8,34.5,34.5,0,0,1,0-34.25,31.61,31.61,0,0,1,12.63-11.8,38.7,38.7,0,0,1,18.27-4.25,38.31,38.31,0,0,1,18.2,4.25,31.74,31.74,0,0,1,12.58,11.8,34.5,34.5,0,0,1,0,34.25A31.67,31.67,0,0,1,556,206.54a38.19,38.19,0,0,1-18.2,4.25A38.59,38.59,0,0,1,519.52,206.54Zm30.07-15.93q4.6-4.85,4.61-13t-4.61-13a15.59,15.59,0,0,0-11.8-4.85,15.78,15.78,0,0,0-11.86,4.85q-4.66,4.86-4.67,13t4.67,13a15.75,15.75,0,0,0,11.86,4.85A15.56,15.56,0,0,0,549.59,190.61Z"/><path class="cls-2" d="M646.9,145.4v64.44H629.18v-7.67a24.77,24.77,0,0,1-8.87,6.41,28,28,0,0,1-11.14,2.21q-12.69,0-20.12-7.3t-7.42-21.68V145.4h18.68v33.65q0,15.58,13.06,15.58a14,14,0,0,0,10.78-4.38q4.07-4.37,4.07-13V145.4Z"/><path class="cls-2" d="M685.17,146.84a33.49,33.49,0,0,1,13.12-2.4v17.25q-3.12-.24-4.2-.24-8,0-12.57,4.49T677,179.41v30.43H658.28V145.4h17.85v8.5A20.72,20.72,0,0,1,685.17,146.84Z"/><path class="cls-2" d="M719.79,206.54A31.8,31.8,0,0,1,707,194.74a32.48,32.48,0,0,1,12.82-46.05,39.62,39.62,0,0,1,18.5-4.25,35.94,35.94,0,0,1,17.79,4.25,25.27,25.27,0,0,1,11.08,12.16l-14.5,7.78q-5-8.85-14.49-8.86a16.43,16.43,0,0,0-12.1,4.79q-4.79,4.8-4.79,13.06t4.79,13a16.39,16.39,0,0,0,12.1,4.79q9.58,0,14.49-8.86l14.5,7.91a25.71,25.71,0,0,1-11.08,12,35.43,35.43,0,0,1-17.79,4.31A39.5,39.5,0,0,1,719.79,206.54Z"/><path class="cls-2" d="M838.18,182.89H789.43a15.22,15.22,0,0,0,6.23,9.46,20.62,20.62,0,0,0,12.22,3.47,24.68,24.68,0,0,0,8.92-1.49,21.74,21.74,0,0,0,7.25-4.73L834,200.37q-9.11,10.42-26.59,10.42a41.94,41.94,0,0,1-19.28-4.25,31.19,31.19,0,0,1-12.94-11.8,32.51,32.51,0,0,1-4.55-17.12,33,33,0,0,1,4.49-17.07,31.56,31.56,0,0,1,12.34-11.86,38.2,38.2,0,0,1,34.67-.18,29.81,29.81,0,0,1,12,11.68,34.87,34.87,0,0,1,4.37,17.67C838.54,178.1,838.42,179.77,838.18,182.89Zm-43.72-20.72A15.26,15.26,0,0,0,789.2,172h31.73a15.42,15.42,0,0,0-5.27-9.76,15.71,15.71,0,0,0-10.54-3.66A16.09,16.09,0,0,0,794.46,162.17Z"/><path class="cls-2" d="M921.66,209.84l-.12-50.31L896.87,201h-8.74l-24.56-40.36v49.23h-18.2V126h16l31.38,52.1L923.7,126h15.93l.24,83.84Z"/><path class="cls-2" d="M1000.47,151.57q8,7.13,8,21.5v36.77H991v-8q-5.28,9-19.64,9a30.42,30.42,0,0,1-12.88-2.51,19.16,19.16,0,0,1-8.32-6.95,18,18,0,0,1-2.88-10.06,16.78,16.78,0,0,1,6.77-14.13Q960.83,172,975,172h14.85q0-6.11-3.71-9.4T975,159.29a32.46,32.46,0,0,0-10.12,1.62,26.76,26.76,0,0,0-8.45,4.37l-6.7-13.05a40.14,40.14,0,0,1,12.63-5.75,56.57,56.57,0,0,1,15.16-2Q992.45,144.44,1000.47,151.57ZM984.54,196a12.12,12.12,0,0,0,5.27-6.53v-6.58H977q-11.5,0-11.5,7.54a6.72,6.72,0,0,0,2.81,5.69,12.67,12.67,0,0,0,7.73,2.1A16.23,16.23,0,0,0,984.54,196Z"/><path class="cls-2" d="M1060,206.72a19.27,19.27,0,0,1-6.77,3.06,34.66,34.66,0,0,1-8.44,1q-11.51,0-17.79-5.86t-6.29-17.25V161.21h-9.94V146.84h9.94v-15.7h18.69v15.7h16v14.37h-16v26.23a8.8,8.8,0,0,0,2.09,6.29,7.75,7.75,0,0,0,5.93,2.21,12,12,0,0,0,7.55-2.39Z"/><path class="cls-2" d="M1076.47,206.54a31.8,31.8,0,0,1-12.82-11.8,32.48,32.48,0,0,1,12.82-46.05,39.65,39.65,0,0,1,18.5-4.25,35.91,35.91,0,0,1,17.79,4.25,25.27,25.27,0,0,1,11.08,12.16l-14.5,7.78q-5-8.85-14.49-8.86a16.43,16.43,0,0,0-12.1,4.79q-4.79,4.8-4.79,13.06t4.79,13a16.39,16.39,0,0,0,12.1,4.79q9.59,0,14.49-8.86l14.5,7.91a25.71,25.71,0,0,1-11.08,12,35.4,35.4,0,0,1-17.79,4.31A39.52,39.52,0,0,1,1076.47,206.54Z"/><path class="cls-2" d="M1169.11,144.44a32.49,32.49,0,0,0-11.5,2,24.78,24.78,0,0,0-9,5.68V125.9h-18.69v83.94h18.69V178q0-8.62,4.19-13t11.26-4.37q6.35,0,9.7,3.77t3.35,11.44v34h18.69V173q0-14.13-7.37-21.32T1169.11,144.44Z"/><path class="cls-3" d="M160.24,236.54V251.8H83.93V175.5H99.2a60.92,60.92,0,0,1,43.16,17.88c.91.9,1.78,1.83,2.62,2.79a60.81,60.81,0,0,1,15.26,40.37Z"/><path class="cls-3" d="M251.8,236.54V251.8H175.5V175.5h15.26a61,61,0,0,1,61,61Z"/><path class="cls-3" d="M213.65,122.08A38,38,0,0,1,206,145a39.36,39.36,0,0,1-3.54,4.08,38,38,0,0,1-27,11.17V83.93a38,38,0,0,1,27,11.18A39.25,39.25,0,0,1,206,99.18,38,38,0,0,1,213.65,122.08Z"/><path class="cls-3" d="M122.08,122.08a38.14,38.14,0,0,1-38.15,38.16V83.93a38.15,38.15,0,0,1,38.15,38.15Z"/></svg>